<svg width="53" height="65" viewBox="0 0 53 65" fill="none" xmlns="http://www.w3.org/2000/svg">
<path d="M23.2753 46.9843H9.81732C9.61512 46.9843 9.42119 47.0646 9.27821 47.2076C9.13523 47.3506 9.05491 47.5445 9.05491 47.7467C9.05491 47.9489 9.13523 48.1428 9.27821 48.2858C9.42119 48.4288 9.61512 48.5091 9.81732 48.5091H23.278C23.4802 48.5091 23.6742 48.4288 23.8171 48.2858C23.9601 48.1428 24.0404 47.9489 24.0404 47.7467C24.0404 47.5445 23.9601 47.3506 23.8171 47.2076C23.6742 47.0646 23.4802 46.9843 23.278 46.9843H23.2753ZM43.1007 46.9843H29.6428C29.4405 46.9843 29.2466 47.0646 29.1036 47.2076C28.9607 47.3506 28.8803 47.5445 28.8803 47.7467C28.8803 47.9489 28.9607 48.1428 29.1036 48.2858C29.2466 48.4288 29.4405 48.5091 29.6428 48.5091H43.1007C43.3029 48.5091 43.4969 48.4288 43.6399 48.2858C43.7828 48.1428 43.8632 47.9489 43.8632 47.7467C43.8632 47.5445 43.7828 47.3506 43.6399 47.2076C43.4969 47.0646 43.3029 46.9843 43.1007 46.9843ZM23.2374 29.4475H9.82003C9.61783 29.4475 9.4239 29.5278 9.28092 29.6708C9.13794 29.8137 9.05762 30.0077 9.05762 30.2099C9.05762 30.4121 9.13794 30.606 9.28092 30.749C9.4239 30.892 9.61783 30.9723 9.82003 30.9723H23.2374C23.4396 30.9723 23.6335 30.892 23.7765 30.749C23.9195 30.606 23.9998 30.4121 23.9998 30.2099C23.9998 30.0077 23.9195 29.8137 23.7765 29.6708C23.6335 29.5278 23.4396 29.4475 23.2374 29.4475ZM43.0628 29.4475H29.6428C29.4405 29.4475 29.2466 29.5278 29.1036 29.6708C28.9607 29.8137 28.8803 30.0077 28.8803 30.2099C28.8803 30.4121 28.9607 30.606 29.1036 30.749C29.2466 30.892 29.4405 30.9723 29.6428 30.9723H43.0628C43.265 30.9723 43.459 30.892 43.6019 30.749C43.7449 30.606 43.8252 30.4121 43.8252 30.2099C43.8252 30.0077 43.7449 29.8137 43.6019 29.6708C43.459 29.5278 43.265 29.4475 43.0628 29.4475ZM44.5579 4.53026H32.8007C32.3807 3.21522 31.5535 2.06773 30.4386 1.25352C29.3238 0.43931 27.979 0.000518799 26.5985 0.000518799C25.218 0.000518799 23.8732 0.43931 22.7584 1.25352C21.6436 2.06773 20.8164 3.21522 20.3963 4.53026H8.62563C6.40196 4.53098 4.26957 5.41464 2.6972 6.98702C1.12483 8.55939 0.241166 10.6918 0.240448 12.9154V56.6126C0.240448 58.8372 1.12417 60.9707 2.6972 62.5438C4.27024 64.1168 6.40373 65.0005 8.62834 65.0005H44.5579C46.782 64.9998 48.9148 64.1158 50.4872 62.5428C52.0597 60.9698 52.943 58.8368 52.943 56.6126V12.9181C52.9423 10.6945 52.0587 8.56209 50.4863 6.98972C48.9139 5.41735 46.7815 4.53369 44.5579 4.53297V4.53026ZM20.9813 6.05508C21.1587 6.0589 21.3318 6.00063 21.4708 5.89035C21.6097 5.78007 21.7058 5.62471 21.7424 5.45111C21.9842 4.33863 22.5994 3.34239 23.4858 2.62796C24.3721 1.91353 25.4763 1.52394 26.6148 1.52394C27.7532 1.52394 28.8574 1.91353 29.7438 2.62796C30.6302 3.34239 31.2454 4.33863 31.4872 5.45111C31.5238 5.62517 31.6203 5.78089 31.7598 5.89123C31.8993 6.00156 32.0731 6.05954 32.2509 6.05508H36.3514V11.0494C36.3507 11.6554 36.1097 12.2364 35.6811 12.6649C35.2526 13.0935 34.6716 13.3345 34.0656 13.3352H19.1586C18.5525 13.3345 17.9715 13.0935 17.543 12.6649C17.1145 12.2364 16.8734 11.6554 16.8727 11.0494V6.05508H20.9813ZM51.4182 56.6126C51.4182 60.4044 48.3469 63.4757 44.5579 63.4757H8.62834C6.80861 63.475 5.06366 62.7516 3.77717 61.4646C2.49068 60.1776 1.76798 58.4324 1.76798 56.6126V12.9181C1.76798 11.0987 2.49077 9.35371 3.77733 8.06714C5.0639 6.78058 6.80886 6.05779 8.62834 6.05779H15.3451V11.0494C15.3451 13.1538 17.0514 14.8601 19.1586 14.8601H34.0276C36.1321 14.8601 37.8383 13.1538 37.8383 11.0494V6.05508H44.5552C48.3469 6.05508 51.4182 9.1264 51.4182 12.9154V56.6126Z" fill="#DB7093"/>
</svg>
