<svg width="65" height="65" viewBox="0 0 65 65" fill="none" xmlns="http://www.w3.org/2000/svg">
<g clip-path="url(#clip0_3_2)">
<path d="M0 22.5334C0 11.911 0 6.59979 3.30002 3.30002C6.59979 0 11.9107 0 22.5334 0H42.4668C53.089 0 58.4 0 61.7002 3.30002C65 6.59979 65 11.9107 65 22.5334V42.4668C65 53.089 65 58.4 61.7 61.7002C58.4 65 53.0893 65 42.4666 65H22.5337C11.9113 65 6.60004 65 3.30027 61.7C0 58.4 0 53.0893 0 42.4666V22.5334Z" fill="#4945FF"/>
<path d="M44.85 19.7166H22.9666V30.875H34.125V42.0332H45.2832V20.15C45.2832 19.9106 45.0892 19.7166 44.85 19.7166Z" fill="white"/>
<path d="M33.6916 30.875H34.125V31.3084H33.6916V30.875Z" fill="white"/>
<path d="M22.9666 30.875H33.6916C33.931 30.875 34.125 31.069 34.125 31.3082V42.0332H23.4C23.3431 42.0332 23.2867 42.022 23.2342 42.0003C23.1816 41.9785 23.1338 41.9466 23.0935 41.9064C23.0533 41.8662 23.0214 41.8184 22.9996 41.7658C22.9778 41.7133 22.9666 41.6569 22.9666 41.6V30.875ZM34.125 42.0332H45.2832L34.4947 52.8216C34.3583 52.9582 34.125 52.8615 34.125 52.6688V42.0332ZM22.9666 30.875H12.3312C12.1382 30.875 12.0418 30.6414 12.1781 30.5051L22.9666 19.7166V30.875Z" fill="#9593FF"/>
</g>
<defs>
<clipPath id="clip0_3_2">
<rect width="65" height="65" fill="white"/>
</clipPath>
</defs>
</svg>
