<svg width="65" height="65" viewBox="0 0 65 65" fill="none" xmlns="http://www.w3.org/2000/svg">
<path d="M49.7656 0H15.2344C6.82066 0 0 6.82066 0 15.2344V49.7656C0 58.1793 6.82066 65 15.2344 65H49.7656C58.1793 65 65 58.1793 65 49.7656V15.2344C65 6.82066 58.1793 0 49.7656 0Z" fill="url(#paint0_linear_3_8)"/>
<path d="M2.91662 32.774L15.6891 37.9496V41.5726L0.569 34.5671V32.4414L2.91662 32.774ZM15.6891 28.5228L2.93515 33.7721L0.569254 34.0311V31.8868L15.6889 24.8998L15.6891 28.5228ZM61.2856 33.5133L48.1434 28.3933V24.8628L63.9288 31.8498V34.0125L61.2856 33.5133ZM48.1434 38.0235L61.3227 32.7925L63.9288 32.4043V34.5485L48.1434 41.5541V38.0235Z" fill="white"/>
<path fill-rule="evenodd" clip-rule="evenodd" d="M44.7071 15.5134C44.6339 16.6728 44.1116 17.8834 44.2571 19.0105C45.1694 20.6238 47.1773 20.881 48.8338 20.9917C49.9814 21.1969 49.967 20.4369 49.89 19.5833L49.904 15.4893C48.1716 15.4956 46.4387 15.4723 44.7071 15.5134ZM31.0466 18.7558C28.2263 19.2347 25.3673 20.5824 23.0209 22.2049C21.1324 23.6747 24.6421 25.0991 25.9155 25.3373C28.4774 25.3685 30.7496 23.6404 32.4325 21.8469C32.9819 21.0928 33.6682 19.9382 32.9779 19.064C32.4507 18.607 31.6842 18.7177 31.0466 18.7558ZM37.0482 22.8577C34.7293 23.2995 32.5229 24.2552 30.5706 25.5859C29.1393 26.0353 27.9597 27.6067 29.7332 28.3941C31.5956 29.8782 33.754 29.5146 35.4692 28.5127C37.0398 27.579 38.7364 26.4271 39.4631 24.6695C40.1494 22.7442 38.3787 22.6728 37.0482 22.8577ZM43.6267 30.3182C43.1948 32.1219 41.3783 32.942 40.412 34.3713C39.6218 35.4138 39.9877 36.642 40.8873 37.4626C41.3253 38.3708 42.0931 38.8784 42.9165 38.0895C45.0371 36.6478 45.6237 33.8396 45.5355 31.4064C45.6922 30.4015 44.5392 31.3099 43.6267 30.3182ZM35.5568 33.7061C32.7407 34.188 29.9241 35.5601 27.5768 37.18C25.7545 38.6478 29.1865 40.0184 30.4703 40.2358C33.0797 40.2396 35.4072 38.558 37.0571 36.6481C37.6309 35.8896 38.3264 34.4167 37.1902 33.8137C36.6821 33.5984 36.0923 33.6616 35.5568 33.7061Z" fill="#B956A6"/>
<path fill-rule="evenodd" clip-rule="evenodd" d="M23.0209 22.2049C20.8551 23.0714 18.766 24.1236 16.7027 25.2256C16.3193 26.6513 16.6268 28.4167 16.5275 29.98C16.5199 36.4079 16.5235 42.836 16.5224 49.2639H21.301C22.2658 48.3554 23.4744 47.6904 24.5225 46.8655C28.5581 43.9712 32.5924 41.0658 36.6227 38.1796C36.9192 38.3129 36.7293 36.435 36.0788 37.7393C34.5373 39.1899 32.4914 40.383 30.3258 40.2665C29.0969 39.8623 27.1159 39.1765 27.1035 37.6705C27.9685 36.6521 25.5074 38.2037 24.8341 38.4259C22.6449 39.4771 20.5075 40.6509 18.3138 41.6825C18.8409 41.1163 19.827 40.5884 20.5263 40.0268C25.5214 36.4411 30.5152 32.8415 35.5222 29.2586C36.4853 28.5825 37.4156 27.8449 38.4084 27.2129C38.499 27.563 38.6692 25.5389 37.9308 26.7851C36.4256 28.277 34.3954 29.3876 32.2542 29.4028C31.0499 29.0372 28.485 28.163 29.056 26.6081C29.3346 26.0624 26.4692 27.7712 27.7352 26.8077C29.0827 25.823 30.4408 24.8559 31.7987 23.8814C32.4845 23.8298 32.3385 21.2824 31.4067 22.9257C29.8413 24.3011 27.7847 25.5595 25.6288 25.2611C24.4177 24.9125 22.9646 24.2374 22.5243 22.9709C22.3785 22.6667 23.3398 22.1927 23.0209 22.2049ZM31.9937 23.7773C32.2113 23.6519 31.8736 24.1208 31.9937 23.7773Z" fill="#FCCC44"/>
<path fill-rule="evenodd" clip-rule="evenodd" d="M45.6775 20.5029C45.0013 23.7316 44.2622 27.1108 43.6267 30.3182C45.4528 32.6196 45.6297 28.8643 45.9492 27.8025C46.4653 25.5831 47.0768 23.9073 47.1415 21.6094C47.2786 20.8251 46.3569 20.3503 45.6775 20.5029ZM47.7725 23.0349C47.8557 23.0971 47.7153 23.3657 47.7725 23.0349ZM45.6422 30.2748C45.73 30.4639 45.73 30.0853 45.6422 30.2748Z" fill="#62777F"/>
<path fill-rule="evenodd" clip-rule="evenodd" d="M46.8752 20.8685C47.4449 24.0683 45.5576 27.9556 44.9404 30.9725C46.342 29.9411 47.4249 25.2616 47.7016 23.4299C47.773 23.2205 47.8608 22.6934 47.8799 22.6743C47.968 22.2297 48.7888 21.4764 48.8338 20.9917C49.3116 20.6545 46.4852 20.6004 46.8752 20.8685ZM45.713 30.2748C45.6249 30.4639 45.6249 30.0853 45.713 30.2748Z" fill="#4E5E67"/>
<path fill-rule="evenodd" clip-rule="evenodd" d="M23.0684 22.2582C22.2782 23.0494 22.5748 22.8561 23.1629 22.1983L23.0684 22.2582ZM31.6149 22.65C30.6996 24.0254 27.3988 25.1756 26.9831 25.2647C28.9687 24.8927 30.8194 23.6575 32.1217 22.2107C31.9148 22.3029 31.7919 22.5195 31.6149 22.65ZM22.5256 23.0966C23.0189 24.2828 24.8127 25.071 25.6844 25.2548C24.4943 24.8714 23.0935 24.1914 22.5256 23.0966ZM31.9226 23.7826C31.6735 24.0767 30.7864 24.5164 30.3187 24.9481C29.3155 25.688 28.2778 26.3755 27.286 27.134C27.9175 27.1068 29.768 25.7245 28.8194 27.1271C29.6232 28.5106 31.3734 29.4727 32.9692 29.3848C35.0766 29.054 37.02 27.8888 38.417 26.2684C36.7212 27.9465 34.4792 29.5258 31.9983 29.3082C30.7976 29.0309 27.5166 27.3361 29.7114 26.148C30.4853 25.5115 31.8195 25.1781 31.9706 24.0594C31.9389 23.9198 32.1991 23.7834 31.9226 23.7826ZM25.9155 25.3373C26.714 25.4417 26.714 25.2332 25.9155 25.3373ZM38.3576 27.248C35.1891 29.4554 32.0666 31.7492 28.9255 33.9963C25.3657 36.544 21.8212 39.1011 18.2625 41.6467C19.6006 41.1955 20.9412 40.3145 22.2704 39.7059C24.101 38.7375 26.0312 37.9725 27.7441 36.7961C31.1307 34.8024 34.7123 32.903 37.3171 29.8528C37.8856 29.186 38.4556 28.1128 38.481 27.3909C38.399 27.414 38.4612 27.1022 38.3576 27.248ZM27.5768 37.18C27.0067 37.8242 26.7752 38.2845 27.3668 37.4654C27.3564 37.5604 27.8469 36.9568 27.5768 37.18ZM36.2492 37.4883C34.7476 39.0716 32.5267 40.2137 30.4429 40.2906C32.8519 40.3081 35.0254 38.8781 36.6575 37.1912C36.5503 37.0617 36.3332 37.4928 36.2492 37.4883ZM36.708 37.9859C31.6631 41.6584 26.4441 45.4678 21.3822 49.1271C22.1795 49.3772 23.9159 49.4945 24.7084 48.4735C26.3943 47.3101 28.2897 46.4547 29.9813 45.2756C32.4307 43.6861 35.0533 41.9489 36.4444 39.2775C36.5107 38.9193 37.003 38.2749 36.708 37.9859ZM27.107 38.219C27.3411 39.2072 30.2677 40.3414 29.9503 40.1243C28.8712 39.746 27.8007 39.1564 27.107 38.219Z" fill="#DC9624"/>
<defs>
<linearGradient id="paint0_linear_3_8" x1="0" y1="65" x2="65" y2="0" gradientUnits="userSpaceOnUse">
<stop stop-color="#DB7093"/>
<stop offset="1" stop-color="#F3B661"/>
</linearGradient>
</defs>
</svg>
